# xmcd
# 
# Track frame offsets:
#     150
#     25116
#     44402
#     68162
#     98882
#     115439
#     142904
#     163942
#     176897
#     197429
#     213478
#     233441
#     259803
#     280607
#     302108
#     335558
# 
# Disc length: 4676
# 
# Revision: 3
# Processed by: cddbd v1.5.2PL0 Copyright (c) Steve Scherf et al.
# Submitted via: BonkEnc v1.0rc1
# 
DISCID=e6124210
DTITLE=Various Artist - Lazy Hours [CD2)
DYEAR=2005
DGENRE=Easy Listening
TTITLE0=Phaedrus - Jade
TTITLE1=Mandalay - This Life
TTITLE2=Chris Botti - The Look Of Love
TTITLE3=Zap Mama feat. Erykah Badu - Bandy Bandy
TTITLE4=Ferry Corsten feat. Shelley Harland - Holdin' On
TTITLE5=Reflekt feat. Delline Bass - Need To Feel Loved (Horizontal Mix)
TTITLE6=Motorcycle - As The Rush Comes (Gabriel and Dresden Chillout Mix)
TTITLE7=Lucienne Boyer - Parlez Moi D'Amour
TTITLE8=Rosalia De Souza - Tempo Futuro
TTITLE9=Amparanoia - En La Ciudad
TTITLE10=Barefoot - White Lines
TTITLE11=Husky - Chaos, Chaos In My Head
TTITLE12=Grassskirt - On My Own
TTITLE13=Bliss - Breathe
TTITLE14=Husky Rescue - New Light Of Tomorrow
TTITLE15=DATA TRACK - DATA TRACK
EXTD=
EXTT0=
EXTT1=
EXTT2=
EXTT3=
EXTT4=
EXTT5=
EXTT6=
EXTT7=
EXTT8=
EXTT9=
EXTT10=
EXTT11=
EXTT12=
EXTT13=
EXTT14=
EXTT15=
PLAYORDER=
